<svg id="Component_11_1" data-name="Component 11 – 1" xmlns="http://www.w3.org/2000/svg" width="268.176" height="227.367" viewBox="0 0 268.176 227.367">
  <g id="Symbols" transform="translate(159.137 36.55)">
    <g id="Scene_Home" data-name="Scene/Home" transform="translate(0 0)">
      <g id="Big-Leaf-Plant" transform="translate(0 0)">
        <g id="Big-Ass-Leaf" transform="translate(18.44 0)">
          <path id="leaf" d="M20.449,1.139a13.562,13.562,0,0,1,6.884.725c4.542,1.928,5.833,7.293,5.77,11.654-.067,4.694-1.064,9.821,2.5,13.6,1.64,1.739,3.681,3.069,5.292,4.84a22.878,22.878,0,0,1,4.072,6.382c1.836,4.27,2.737,9.292,1.058,13.772-1.478,3.944-5.2,7.5-4.394,11.989.838,4.678,5.555,8.255,8.5,11.74,3.338,3.944,6.41,8.984,6.915,14.155.484,4.956-1.673,9.969-4.984,13.716-6.615,7.487-16.559,11.156-26.586,11.134-4.257-.01-9.077-.2-12.75-2.489a7.029,7.029,0,0,1-2.409-2.6A8.485,8.485,0,0,0,8,107.424,13.83,13.83,0,0,1,3.558,101.5C-.081,92.491,2.827,81.35,7.92,73.353c1.207-1.895,2.195-3.718,1.608-5.976-.612-2.357-2.115-4.484-3.445-6.51a52.37,52.37,0,0,1-3.842-6.079A13.794,13.794,0,0,1,1.053,47.66,24.243,24.243,0,0,1,6.274,34.943c2.745-3.613,5.969-7.069,5.976-11.8.008-5.017-3.346-9.48-1.917-14.58a9.72,9.72,0,0,1,3.7-5.545A15.061,15.061,0,0,1,20.449,1.139Z" transform="translate(-1 -1)" fill="#89b79a" fill-rule="evenodd"/>
          <path id="middle-thing" d="M23.111,10.943a1.156,1.156,0,0,1,1.471-.9c.828.232.812,1.005.79,1.695a22.776,22.776,0,0,0,.749,6.235c1.059,4.275,3.015,8.214,4.566,12.32a22.427,22.427,0,0,1,1.367,12.681c-.857,4.094-2.2,8.081-3.079,12.18-.773,3.612-1.595,7.422-.418,11.025C29.691,69.645,32.194,72.469,34,75.6A44.448,44.448,0,0,1,39.6,96.7a39.445,39.445,0,0,1-.788,10.285c-.459,1.943-1.077,4.568-2.741,5.909a1.9,1.9,0,0,1-2.727-.083c-.607-.859-.074-2.189.118-3.1a47.06,47.06,0,0,0,.8-12.038,43.471,43.471,0,0,0-1.881-11.513,38.967,38.967,0,0,0-4.9-9.581c-2.075-3.08-4.231-6.167-5.089-9.816-.871-3.707-.163-7.478.783-11.114,1-3.846,2.311-7.581,3.666-11.322A19.867,19.867,0,0,0,27.9,33.408C26.464,25.87,22.609,18.794,23.111,10.943Z" transform="translate(-5.163 -2.784)" fill="#c5cfd6" fill-rule="evenodd"/>
        </g>
        <g id="Big-Ass-Leaf-2" data-name="Big-Ass-Leaf" transform="translate(25.656 8.018)">
          <path id="leaf-2" data-name="leaf" d="M72.873,1.269a17.233,17.233,0,0,1,7.691,4.439c4.308,4.643,2.986,11.66.608,16.785-2.56,5.516-6.439,11.061-4.252,17.39,1.005,2.91,2.7,5.545,3.648,8.477a29.548,29.548,0,0,1,1.4,9.666c-.1,6.005-1.7,12.413-6.038,16.838-3.819,3.9-10.063,6.171-11.49,11.892-1.49,5.969,2.152,12.653,3.769,18.308,1.83,6.4,2.77,13.96.629,20.339-2.052,6.113-7.232,10.919-13.1,13.627-11.716,5.412-25.319,4.579-37.067-.664-4.988-2.226-10.539-4.96-13.639-9.577a9.033,9.033,0,0,1-1.45-4.332,10.9,10.9,0,0,0-1.5-3.97,17.83,17.83,0,0,1-2.073-9.318C.509,98.625,9.808,86.961,20.009,80.153c2.417-1.613,4.539-3.255,5.046-6.231.529-3.106-.111-6.4-.6-9.492a67.665,67.665,0,0,1-1.293-9.188A18,18,0,0,1,25.534,46.2,31.658,31.658,0,0,1,38.38,33.872c5.129-2.844,10.737-5.255,13.248-10.849,2.661-5.929,1.086-12.952,5.458-18.24A12.645,12.645,0,0,1,64.35.146C67.146-.335,70.2.457,72.873,1.269Z" transform="translate(0 0)" fill="#93c7a6" fill-rule="evenodd"/>
          <path id="middle-thing-2" data-name="middle-thing" d="M73.412,13.65a1.474,1.474,0,0,1,2.193-.3c.847.708.423,1.616.037,2.421a29.843,29.843,0,0,0-2.389,7.776c-1,5.617-.776,11.307-1.114,16.983S70.432,51.6,67.1,56.267c-3.145,4.4-6.807,8.415-9.979,12.81-2.8,3.873-5.752,7.953-6.263,12.837-.493,4.7.955,9.358,1.421,14.015a58.234,58.234,0,0,1-4.49,27.919,51.529,51.529,0,0,1-6.308,11.767c-1.554,2.061-3.651,4.846-6.3,5.561-1.221.33-2.869-.1-3.144-1.527-.259-1.336,1.059-2.631,1.764-3.615A61.5,61.5,0,0,0,41.04,122.2a56.948,56.948,0,0,0,3.83-14.62,50.951,50.951,0,0,0-.717-13.916c-.813-4.734-1.718-9.521-.809-14.292.923-4.846,3.726-8.942,6.736-12.751,3.184-4.03,6.673-7.766,10.217-11.487A25.942,25.942,0,0,0,67.25,42.766C69.514,33.083,68.713,22.684,73.412,13.65Z" transform="translate(-6.344 -2.577)" fill="#c5cfd6" fill-rule="evenodd"/>
        </g>
        <g id="Big-Ass-Leaf-3" data-name="Big-Ass-Leaf" transform="translate(0 44.898)">
          <path id="leaf-3" data-name="leaf" d="M10.668,0A15.257,15.257,0,0,1,22.412,6.06c3.351,4.161,4.028,9.243,5.389,14.2a12.678,12.678,0,0,0,3.883,6.6c1.856,1.525,4.213,1.83,6.435,2.575a15.017,15.017,0,0,1,9.443,9.453c1.728,5.339-.1,10.723.213,16.133.289,4.969,5.188,8.069,9.13,10.45,3.887,2.349,7.388,4.547,8.559,9.123,1.241,4.853,1.658,10.27-.062,15.064-2.863,7.982-11.24,11.5-19.335,12.042-7.346.495-16.584-.281-22.1-5.614-3.3-3.191-4.5-7.654-4.349-12.094a36.814,36.814,0,0,1,1.346-8.165,36.833,36.833,0,0,0,1.371-5.728c.513-5.2-4.292-6.2-8.383-7.625A19.948,19.948,0,0,1,2.585,52.455C.229,48.01-.76,43.021.652,38.127a16.727,16.727,0,0,1,3.8-6.694c.781-.849,1.882-1.557,2.587-2.448A3.3,3.3,0,0,0,7.332,26.1c-1.049-4.505-4.316-8.236-5.485-12.733C.793,9.3,1.416,4.253,5.128,1.634A9.693,9.693,0,0,1,10.668,0Z" transform="translate(0 0)" fill="#8cbe9e" fill-rule="evenodd"/>
          <path id="middle-thing-3" data-name="middle-thing" d="M20.676,14.514c5.009,5.335,6.37,12.574,6.77,19.591.224,3.934-.009,8.084,1.147,11.9.989,3.266,3.308,5.763,5.7,8.123,4.811,4.75,10.176,9.58,11.583,16.454.826,4.035.268,8.2,1.409,12.192a33.534,33.534,0,0,0,5.085,10.253c1.789,2.467,4.119,4.355,6.074,6.654.6.7,1.451,1.735,1.2,2.726-.288,1.16-1.766,1.527-2.815,1.345-2.445-.425-4.5-2.76-6.1-4.457a38.367,38.367,0,0,1-5.938-8.145,34.237,34.237,0,0,1-3.852-10.584c-.64-3.87-.321-7.9-1.783-11.618C36.7,62.7,30.737,59.01,26.425,54.139c-5.372-6.07-4.571-13.624-4.021-21.09.3-4.1.6-8.737-1.471-12.483-.791-1.43-2.556-2.763-2.9-4.389C17.726,14.688,19.427,13.183,20.676,14.514Z" transform="translate(-3.568 -2.775)" fill="#afb9c5" fill-rule="evenodd"/>
        </g>
        <path id="Base" d="M28,181c0,30.513,4.98,46.5,31.268,46.5S90.537,211.513,90.537,181Z" transform="translate(-5.551 -36.684)" fill="#0582ca" fill-rule="evenodd"/>
      </g>
    </g>
  </g>
  <g id="Symbols-2" data-name="Symbols" transform="translate(67.486 0)">
    <g id="Scene_Home-2" data-name="Scene/Home" transform="translate(0 0)">
      <g id="Clock">
        <path id="Clock-Frame" d="M31.046,0A31.046,31.046,0,1,1,0,31.046,31.046,31.046,0,0,1,31.046,0Z" fill="#c5c5c5"/>
        <circle id="Time" cx="1.774" cy="1.774" r="1.774" transform="translate(29.272 4.435)" fill="rgba(0,0,0,0.1)"/>
        <circle id="Time-2" data-name="Time" cx="1.774" cy="1.774" r="1.774" transform="translate(4.435 29.272)" fill="rgba(0,0,0,0.1)"/>
        <circle id="Time-3" data-name="Time" cx="1.774" cy="1.774" r="1.774" transform="translate(54.109 29.272)" fill="rgba(0,0,0,0.1)"/>
        <circle id="Time-4" data-name="Time" cx="1.774" cy="1.774" r="1.774" transform="translate(29.272 54.109)" fill="rgba(0,0,0,0.1)"/>
        <path id="Hand" d="M52.186,17l1.186,20.757H51Z" transform="translate(-21.176 -7.286)" fill="#757575" fill-rule="evenodd"/>
        <path id="Hand-2" data-name="Hand" d="M1.186,0,2.372,14.233H0Z" transform="translate(42.345 40.722) rotate(135)" fill="#757575" fill-rule="evenodd"/>
        <circle id="Time-5" data-name="Time" cx="2.661" cy="2.661" r="2.661" transform="translate(28.385 28.385)" fill="#c5cfd6"/>
      </g>
    </g>
  </g>
  <g id="Symbols-3" data-name="Symbols" transform="translate(118.081 149.381)">
    <g id="Objects_Seat_Cube-2" data-name="Objects/Seat/Cube-2" transform="translate(0 0)">
      <path id="Seat" d="M52.489,0h68.2c5.241,0,9.489,4.505,9.489,10.063V67.924c0,5.558-4.248,10.063-9.489,10.063h-68.2c-5.241,0-9.489-4.5-9.489-10.063V10.063C43,4.505,47.248,0,52.489,0Zm9.489,17.61a2.447,2.447,0,0,0-2.372,2.516V57.861a2.447,2.447,0,0,0,2.372,2.516H111.2a2.447,2.447,0,0,0,2.372-2.516V20.126A2.447,2.447,0,0,0,111.2,17.61Z" transform="translate(-43 0)" fill="#c5cfd6" fill-rule="evenodd"/>
    </g>
  </g>
  <g id="Symbols-4" data-name="Symbols" transform="translate(120.014 23.511) rotate(-13)">
    <g id="Head_Front_Short-Beard" data-name="Head/Front/Short-Beard" transform="translate(0 0)">
      <g id="Head" transform="translate(1.248 3.015)">
        <path id="Path_5" data-name="Path 5" d="M19.32,20.749C22.053,17.541,23.9,13.61,23.594,9.2,22.7-3.487,3.8-1.458,1.6,5.711s-2.485,21.3,1.413,23.8c1.771.457,5.545-.662,9.385-2.977L9.987,43.587H24.22Z" transform="translate(0 0)" fill="#e1ab79" fill-rule="evenodd"/>
      </g>
      <path id="Hair" d="M12.934,13.622Q12.117,25.006,8.61,25.006c-3.507,0-5.271-2.2-6.81-2.2-1.122,0-1.474,2.122-.73,3.162.613.859,2.993.939,2.993,2.27s-2.36.3-2.36,1.091c0,1.306-3.606,11.046-.322,13.178,3.61,2.207,11.044-10.252,12.171-13.657q1.091-3.3,1.411-13.658a3.561,3.561,0,0,1,3.983,3.533,3.548,3.548,0,0,1-1.072,2.546c.823,1.162,1.746,2.376,2.8,3.629,3.972-2.383,7.224-9.492,3.34-16.194C22.943,5.426,20.209,3.8,17.339,2.99c-2.325-.973-5.033-2.215-7.07-1.632C6.276,1.7,1.88-1.9.534,1.411c0,3.781,2.192,8.266,8.449,8.168A11.542,11.542,0,0,1,12.934,13.622Z" fill="#3d2c2c" fill-rule="evenodd"/>
    </g>
  </g>
  <g id="Symbols-5" data-name="Symbols" transform="translate(39.19 119.134)">
    <g id="Bottom_Sitting_Baggy-Pants" data-name="Bottom/Sitting/Baggy-Pants" transform="translate(0 0)">
      <path id="LegLower" d="M239.429,113.388q17.539-21.418,23.735-31.756c7.072-11.8,12.861-22.3,14.687-26.314,4.356-9.566-10.028-14.045-13.283-9.583Q257.177,55.865,233,109.484Z" transform="translate(-211.057 -18.085)" fill="#b28b67" fill-rule="evenodd"/>
      <path id="LegLower-2" data-name="LegLower" d="M249.017,107.2l21.761-54.777c4.654-9.985-17.822-16.549-21.242-11.9C241.771,51.073,223.313,92.692,221,95.835Z" transform="translate(-196.684 -16.05)" fill="#430e0e" fill-rule="evenodd"/>
      <g id="Lower-Leg" transform="matrix(-0.777, 0.629, -0.629, -0.777, 113.112, 81.952)">
        <path id="LegLower-3" data-name="LegLower" d="M1.07,3.163c-.6,7.473-1.706,33.343-.6,45.317.319,3.441.655,6.768.993,9.889,1.006,9.276,18.206,8.983,16.841.17C14.906,36.591,8.919,5.833,8.49,3.175,7.888-.55,1.445-1.534,1.07,3.163Z" transform="translate(0 0)" fill="#b28b67" fill-rule="evenodd"/>
      </g>
      <g id="Accessories_Shoe_Flat-Sneaker" data-name="Accessories/Shoe/Flat-Sneaker" transform="translate(114.489 84.374) rotate(150)">
        <path id="shoe" d="M1,8.658A12.734,12.734,0,0,1,0,4.682,29.758,29.758,0,0,1,.534,0h33.45q1.3,4.311-1.505,4.654t-4.667.621L12.265,12.206a.593.593,0,0,1-.783-.3l-.007-.015-1-2.424A10.665,10.665,0,0,0,6.249,8.253,9.572,9.572,0,0,0,2.6,9.32h0a1.186,1.186,0,0,1-1.573-.584Q1.01,8.7,1,8.658Z" transform="translate(0 0)" fill="#e4e4e4" fill-rule="evenodd"/>
      </g>
      <g id="Accessories_Shoe_Flat-Sneaker-2" data-name="Accessories/Shoe/Flat-Sneaker" transform="translate(0 89.57)">
        <path id="shoe-2" data-name="shoe" d="M34.4,22.932a12.734,12.734,0,0,1,1,3.976,29.758,29.758,0,0,1-.534,4.682H1.413q-1.3-4.311,1.505-4.654t4.667-.621l15.547-6.931a.593.593,0,0,1,.783.3l.007.015,1,2.424a10.665,10.665,0,0,0,4.226,1.213A9.572,9.572,0,0,0,32.8,22.27h0a1.186,1.186,0,0,1,1.573.584Q34.387,22.892,34.4,22.932Z" transform="translate(-1 -19.332)" fill="#e4e4e4" fill-rule="evenodd"/>
      </g>
      <path id="Leg-and-Butt" d="M147.381,39.413q27.13-4.42,36.343-6.044C201.234,30.282,206.34,20.86,203.321.3h-32.26q-6.4,1.849-53.514,22.874c-5.651,2.805-4.6,11.076-3.565,13.8q.063.167,28.578,48.969l26.39-16.812-21.618-27.74Q146.476,39.669,147.381,39.413Z" transform="translate(-65.457 -0.302)" fill="#611919" fill-rule="evenodd"/>
    </g>
  </g>
  <g id="Symbols-6" data-name="Symbols" transform="matrix(0.883, -0.469, 0.469, 0.883, 114.296, 207.528)">
    <g id="Accessories_Shoe_Flat-Pointy" data-name="Accessories/Shoe/Flat-Pointy" transform="translate(0 0)">
      <path id="Shoe-3" data-name="Shoe" d="M36.177,12.454,35.584,0H23.129Q14.271,6.227,0,10.082v2.372H22.536l7.71-1.186v1.186Z" transform="translate(0 0)" fill="#673b09" fill-rule="evenodd"/>
    </g>
  </g>
  <path id="Path_194" data-name="Path 194" d="M85.7,458.007l13.48-1.125a.917.917,0,0,1,.96.541l12.746,28.851c-12.66.814-15.51,1.116-15.927.244L84.29,460C84.018,459.437,85.066,458.086,85.7,458.007Z" transform="translate(-34.031 -371.812)" fill="#c5c5c5"/>
  <path id="Path_195" data-name="Path 195" d="M85.7,458.007l13.48-1.125a.917.917,0,0,1,.96.541l12.746,28.851c-16.362.684-15.578,1.468-16.624-1.146L84.29,460C84.018,459.437,85.066,458.086,85.7,458.007Z" transform="translate(-34.031 -371.812)" fill="#c4b1b1" opacity="0.15"/>
  <path id="Path_196" data-name="Path 196" d="M87.146,456.451l14.164-1.809a.917.917,0,0,1,.96.541l11.946,29.479-14.94.218L86.422,457.762a.917.917,0,0,1,.724-1.311Z" transform="translate(-35.478 -370.257)" fill="#b5b5b5"/>
  <path id="Path_197" data-name="Path 197" d="M98.791,463.57l10.24-1.6a.917.917,0,0,1,.993.562l10.726,26.238a.831.831,0,0,1-.018.672h-11.7a.828.828,0,0,1-.75-.477L98.1,464.871a.917.917,0,0,1,.694-1.3Z" transform="translate(-43.587 -375.346)" fill="#63caff"/>
  <g id="Symbols-7" data-name="Symbols" transform="translate(37.411 208.389)">
    <g id="Accessories_Shoe_Flat-Pointy-2" data-name="Accessories/Shoe/Flat-Pointy">
      <path id="Shoe-4" data-name="Shoe" d="M36.177,31.454,35.584,19H23.129Q14.271,25.227,0,29.082v2.372H22.536l7.71-1.186v1.186Z" transform="translate(0 -19)" fill="#673b09" fill-rule="evenodd"/>
    </g>
  </g>
  <g id="Symbols-8" data-name="Symbols" transform="translate(9.53 114.402)">
    <g id="Objects_Seat_Cube" data-name="Objects/Seat/Cube">
      <g id="Seat-2" data-name="Seat">
        <path id="Seat-Stuff" d="M79.6,112.965H9.222L0,0H104.766Z" fill="#c5cfd6" fill-rule="evenodd"/>
        <path id="Seat-Stuff-2" data-name="Seat-Stuff" d="M34.6,112.965H12.955L0,0H59.766Z" transform="translate(45)" fill="rgba(0,0,0,0.1)" fill-rule="evenodd"/>
      </g>
    </g>
  </g>
  <g id="Symbols-9" data-name="Symbols" transform="translate(0 62.806)">
    <g id="Scene_Plants" data-name="Scene/Plants" transform="translate(0 0)">
      <g id="Maceta">
        <path id="Base-2" data-name="Base" d="M15.418,48.456c0,12.625,1,22.859,14.369,22.859S44.155,61.08,44.155,48.456" transform="translate(-6.274 -19.719)" fill="#f2f2f2" fill-rule="evenodd"/>
        <path id="Fill-27" d="M27.49,20.86a26.434,26.434,0,0,0-1.313,2.589,35.427,35.427,0,0,1,.359-5.472c.466-3.161,1.179-6.3,1.848-9.444.481-2.256.451-6.308,2.276-8.106.5-.389.621.374.621.7.006.07,0-1.35-.487-1.1C27.906,1.521,26.97,6.212,26.045,8.56a45.2,45.2,0,0,0-2.97,10.5,23.524,23.524,0,0,0-.2,2.7c-.1-.24-.19-.483-.292-.723A48.763,48.763,0,0,0,15.86,9.794C15.17,8.928,6.485.385,5.8,1.693a.9.9,0,0,0,.422.473c.013.014.013.006.006-.015.51.824,1.96,2.1,2.412,2.818a54.538,54.538,0,0,1,2.918,5.636c1.9,4,3.657,8.034,5.363,12.079.4.942.811,1.879,1.234,2.813C13.8,19.218,8,13.516,0,10.252c2.731,1.389,4.522,4,6.366,6,2.224,2.414,4.567,4.763,6.8,7.175,2.629,2.845,5.722,5.84,8.25,8.988a94.8,94.8,0,0,1,6.3,15.694c-.6-1.867-.047-4.448-.15-6.408a43.3,43.3,0,0,0-.514-4.651,9.549,9.549,0,0,1,.7,2.042c-.11-1.087-.237-2.168-.373-3.243.35-1.006.693-1.946.925-2.719a69.851,69.851,0,0,1,4.532-11.67,104.169,104.169,0,0,1,6.06-10.354c1.04-1.569,2.094-3.133,3.142-4.7a24.748,24.748,0,0,1,2.294-3.649C38.149,8.406,31.406,14.09,27.49,20.86" transform="translate(0 0)" fill="#f2f2f2" fill-rule="evenodd"/>
      </g>
    </g>
  </g>
  <g id="Symbols-10" data-name="Symbols" transform="translate(9.53 62.408)">
    <g id="Scene_Home-3" data-name="Scene/Home" transform="translate(0 0)">
      <g id="Lamp">
        <path id="Body" d="M73.856,17.578l-3.063-2.012a1.842,1.842,0,0,0-1.866,0h0l-8.154,5.357A1.511,1.511,0,0,0,60,22.147V57.629" transform="translate(-53.13 -7.487)" fill="none" stroke="#cbcbcb" stroke-width="8" fill-rule="evenodd"/>
        <rect id="Lamp-Base" width="18.218" height="2.161" rx="1.081" transform="translate(0 49.833)" fill="#afb9c5"/>
        <g id="Lamp-Top" transform="translate(39.428 14.533) rotate(135)">
          <path id="Lamp-2" data-name="Lamp" d="M10.19,18.836h0A10.19,10.19,0,0,0,20.38,8.646V0H0V8.646A10.19,10.19,0,0,0,10.19,18.836Z" transform="translate(0 1.717)" fill="#c5cfd6" fill-rule="evenodd"/>
          <ellipse id="Lamp-3" data-name="Lamp" cx="10.19" cy="2.007" rx="10.19" ry="2.007" transform="translate(0.055 0)" fill="#fedc6f"/>
        </g>
      </g>
    </g>
  </g>
  <g id="Symbols-11" data-name="Symbols" transform="translate(70.18 69.733) rotate(-14)">
    <g id="Body_Jacket" data-name="Body/Jacket" transform="translate(0 0)">
      <path id="Skin" d="M29.608,0,12.7,16.49A51.228,51.228,0,0,0,.616,23.439c-.706.852-1.475,2.485,1.849,1.754s6.852-1.35,7.477-.269-1.216,2.737-.061,4.152q1.155,1.414,7.765-9L35.221,9.714Z" transform="matrix(0.839, 0.545, -0.545, 0.839, 15.928, 18.571)" fill="#e1ab79" fill-rule="evenodd"/>
      <path id="Skin-2" data-name="Skin" d="M12.469,0,0,.049Q11.549,37.33,12.469,39.611c1.381,3.421-1.119,7.5,3.362,11.34,4.069,1.821-2.517-4.829,2.617-2.441,4.686,2.18,8.25,6.13,13.663,2.789.666-.411,1.395-1.957-.367-3.165-4.39-3.01-10.717-8.279-11.572-10.014Q18.424,34.574,12.469,0Z" transform="translate(101.299 55.503)" fill="#e1ab79" fill-rule="evenodd"/>
      <path id="Coat-Back" d="M0,27.85,3.138,43.656c10.783-21.332,35-27.587,59.1-30.448L56.227.575C30.2-1.41,1.582.422,0,27.85Z" transform="translate(80.105 45.513) rotate(175)" fill="#000a3e" fill-rule="evenodd"/>
      <path id="Shirt" d="M42.007,75.616S16.6,75.5,0,66.5C-.013,46.3,13.412,21.025,13.412,2.154L26.54,0C36.858,18.274,39.97,45.431,42.007,75.616Z" transform="translate(56.594 0)" fill="#dde3e9" fill-rule="evenodd"/>
      <path id="Coat-Front" d="M15.412.01,15.406,0h-.9Q12.878.056,9.555.2L6.206,9.772Q5.674,27.274,0,80.317H30.117q-.118,3.663-.391,7.4H52.121Q47.1,31.025,15.422,0Z" transform="translate(69.588)" fill="#001477" fill-rule="evenodd"/>
      <path id="Shade" d="M6.438,0Q5.152,22.836,0,31.485H8.42A157.431,157.431,0,0,0,6.438,0Z" transform="translate(91.278 49.067)" fill="rgba(0,0,0,0.1)" fill-rule="evenodd"/>
      <path id="Light" d="M14.851,6.9,0,0V6.9Z" transform="translate(78.151 55.151)" fill="rgba(255,255,255,0.2)" fill-rule="evenodd"/>
    </g>
  </g>
</svg>
