<svg xmlns="http://www.w3.org/2000/svg" width="287.994" height="103.05" viewBox="0 0 287.994 103.05">
  <g id="Logo" transform="translate(1.5 1.5)">
    <rect id="Rectangle_1" data-name="Rectangle 1" width="97.607" height="100.033" transform="translate(0 0.017)" fill="none" stroke="#001477" stroke-width="3"/>
    <path id="Path_2" data-name="Path 2" d="M63.737,24.154Q58.9,31.5,51.151,45.452q-1.452,3.63-2.824,7.261-1.129,2.5-2.985,2.5A12.159,12.159,0,0,1,41.067,54q-3.146-1.291-3.146-2.582a7.686,7.686,0,0,1,1.049-2.5A140.417,140.417,0,0,0,48.328,22.38q4.437-16.7,3.792-25.493-.161-3.55-1.613-3.55-1.049,0-3.146,2.017Q27.03,15.2,12.186,48.437q-1.856,4.114-4.356,4.114-1.775,0-5.889-2.017Q.327,49.809.246,49.163A10.752,10.752,0,0,1,1.134,46.9a196.563,196.563,0,0,0,9.278-25.977Q15.332,3.905,15.978-5.614q.161-2.9-.161-2.9-.081,0-2.259,2.178T7.507-.693A2.237,2.237,0,0,1,5.893.033q-1.129,0-1.129-.887a2.227,2.227,0,0,1,.807-1.452Q9.04-6.744,14.687-13.359a3.4,3.4,0,0,1,2.5-1.371q1.936,0,3.388,2.824,6.535,1.936,6.131,5.97-.887,8.874-9.116,32.028A145.463,145.463,0,0,1,33.322,2.816Q43.649-10.051,48.651-12.391A10.412,10.412,0,0,1,52.2-13.52q1.049,0,3.388,1.775Q62.284-9.406,62.2-4q0,5.647-2.743,18.152Q57.283,24.477,55.427,30.2q2.34-2.985,5.97-7.745a1.749,1.749,0,0,1,1.291-.807q1.21,0,1.21,1.533A3.045,3.045,0,0,1,63.737,24.154Z" transform="translate(14.693 28.818)" fill="#001477" stroke="#001477" stroke-width="1"/>
    <path id="Path_3" data-name="Path 3" d="M-669.05,618.523v35.51H-840.366V553.983H-669.05v38.028" transform="translate(945.751 -553.983)" fill="none" stroke="#001477" stroke-width="3"/>
    <path id="Path_4" data-name="Path 4" d="M.1-2.685l-.015-.7q2.258,0,3.307-.117.408-.044.568-.044.131,0,.393.015A8.082,8.082,0,0,1,5.487-2.365q.117.131.262.291L8.822,1.32l.437.524q.932,1.092,1.7,1.864t2.979,3.219l3.481,3.86q.51.568,1.311,1.413l.015-.233q-.087-2.025-.087-2.141l.058-.874-.029-1.369V6.957q0-.6-.1-3.685-.015-.422-.117-1.595t-.1-2.061a4.808,4.808,0,0,0-.189-1.864,2.655,2.655,0,0,0-1.238-.393q-.262-.015-.816-.087a4.077,4.077,0,0,1-.772-.073.526.526,0,0,1-.233-.248,1.342,1.342,0,0,1,.131-.437,2.709,2.709,0,0,1,.772-.117,6.278,6.278,0,0,1,1.012.1,6.591,6.591,0,0,0,1.085.1q.67,0,2.083-.087.8-.058,1.107-.058h.248l-.029.452a1.892,1.892,0,0,1-.641.124,3.338,3.338,0,0,0-.757.124,1.656,1.656,0,0,0-.626.277,1.141,1.141,0,0,0-.35.772l.16,4.6.117,2.112-.015.612L19.5,8.458q.087,3,.087,5.215,0,.481-.058,2.083l-.679.058q-.51-.583-3.512-3.671-.7-.714-.947-1.005L13.137,9.7q-.729-.8-.947-1.02l-.321-.32Q10.281,6.55,7.746,3.84q-.685-.728-2.011-2.272Q4.9.592,4.686.373a5.184,5.184,0,0,0-.6-.5l-.044.5q0,2.84.146,7.837l.1,4.821q.015.612.073,1.18l.51.117q1.384.131,2.724.393a1.35,1.35,0,0,0,.175.131l-.015.554a1.336,1.336,0,0,1-.379.073,3.258,3.258,0,0,1-.393-.029q-1.442-.117-3.51-.117-1.457,0-2.564.073l-.2.015a3.5,3.5,0,0,1-.379-.029l-.015-.437.379-.175.685-.1a6.839,6.839,0,0,0,1.34-.291,1.067,1.067,0,0,0,.452-.306,20.131,20.131,0,0,0,.16-2.942q0-.9-.044-3.307V5.85L3.258,1.714a17.952,17.952,0,0,0-.189-3.263A.965.965,0,0,0,2.7-2.015a3.068,3.068,0,0,0-1.449-.5A9.681,9.681,0,0,1,.1-2.685ZM23.432,14.907a.7.7,0,0,1,.248-.156,4.547,4.547,0,0,1,.845-.117,5.8,5.8,0,0,0,1.748-.263,1.411,1.411,0,0,0,.2-.817l-.015-1.021.015-3.706-.029-1.751.015-3.662L26.389-.745A4.065,4.065,0,0,0,26.2-2.423a2.694,2.694,0,0,0-1.559-.321,6.865,6.865,0,0,1-.976-.087.3.3,0,0,1-.189-.262.69.69,0,0,1,.073-.277.493.493,0,0,1,.233-.073q.2,0,.5.015a17.564,17.564,0,0,0,1.777.087l1.078-.029,2.564.058q1.923,0,3-.044T34.153-3.4q.335,0,1.661.058l2.068-.015.248.044,1.209-.044.146.073a.786.786,0,0,1,.1.248,4.53,4.53,0,0,1-.066.626,5,5,0,0,0-.066.524q0,1.515.1,2.564A.14.14,0,0,1,39.471.8a.884.884,0,0,1-.286-.044,7.789,7.789,0,0,1-.43-.976,11.328,11.328,0,0,0-.809-1.617,2.251,2.251,0,0,0-.568-.728,1.979,1.979,0,0,0-.845-.117q-.131,0-1.326-.029-.321-.015-.627-.015l-4.154.087h-.364q-.8,0-.962.2a4.773,4.773,0,0,0-.248,2.054q0,.175.073,3.5V5.137a1.326,1.326,0,0,0,.35.044h.248q.248,0,.728.015.757.029,1.02.029a2.808,2.808,0,0,0,.306-.015q1.573-.058,4.049-.058a1.7,1.7,0,0,0,.9-.306,3.055,3.055,0,0,0,.328-1.369q.109-1.107.488-1.253a.835.835,0,0,1,.35.073.9.9,0,0,1,.029.218,3.077,3.077,0,0,1-.029.335q-.073.539-.073,3.379,0,.757.08,1.69t.08,1.005a1.88,1.88,0,0,1-.044.35.454.454,0,0,1-.189.058h-.1a5.363,5.363,0,0,1-.452-1.267A4.1,4.1,0,0,0,36.2,6.222a2,2,0,0,0-1.347-.371q-.2,0-.743.022t-1.6.022H31.56a24.5,24.5,0,0,0-2.651.088l-.015.481.015,2.685-.015,1.693.015,1.649a4.469,4.469,0,0,0,.189,1.722,1.341,1.341,0,0,0,1.078.321l.889-.015q.117,0,.91.022t1.959.022a18.322,18.322,0,0,0,3.744-.241,3.246,3.246,0,0,0,1.537-.855,10.2,10.2,0,0,0,1.522-2.645q.277-.6.554-.6a.512.512,0,0,1,.291.117A16.224,16.224,0,0,0,41.1,12.23a16.278,16.278,0,0,0-.189,2.083,1.326,1.326,0,0,1-.233.8h-.32l-4.093.044-1.835-.015-4.37.058H28.283q-.335,0-.626.015-2.622.117-3.86.117a.462.462,0,0,1-.3-.071.27.27,0,0,1-.08-.213Zm19.678-.229a20.46,20.46,0,0,0,2.392-.349.763.763,0,0,0,.348-.437v-.16q0-.364.116-2.634.029-.64.029-1.252l-.044-1.732.029-1.965L45.966,2.5l.015-2.62a4.312,4.312,0,0,0-.255-2.023,2.163,2.163,0,0,0-1.391-.517A6.592,6.592,0,0,1,43.1-2.889a.254.254,0,0,1-.117-.233,1.042,1.042,0,0,1,.044-.262,1.161,1.161,0,0,1,.67-.146q.073,0,.4-.036a5.619,5.619,0,0,1,.619-.036h1.194l3.831-.044a14.8,14.8,0,0,1,4.552.481,4.194,4.194,0,0,1,2.076,1.624,4.466,4.466,0,0,1,.772,2.556A4.431,4.431,0,0,1,54.33,5.107a7.342,7.342,0,0,0-.757.437q.494,1.048,1.382,2.517L56.8,11.234a17.964,17.964,0,0,0,1.53,2.2,3.493,3.493,0,0,0,1.027.737,8.779,8.779,0,0,0,2.033.555q.015.146.015.233a2.042,2.042,0,0,1-.015.218q-2,.029-4.676.029-.189,0-.524-.029-1.034-1.984-2.433-4.362L51.6,6.871a2.624,2.624,0,0,0-.721-.766,1.582,1.582,0,0,0-.75-.153l-1.238.014-.408-.014q-.044.466-.044,1.908v4.981a2.687,2.687,0,0,0,.117.772.93.93,0,0,0,.4.444,8.642,8.642,0,0,0,1.639.5l.6.146a.612.612,0,0,1,.117.393,3.552,3.552,0,0,1-.553.073q-1.309,0-1.846-.029-.276-.015-.451-.015l-1.978.029-1.934-.015q-.131,0-1.323.044l-.291-.058-.029-.146Q42.907,14.852,43.11,14.677Zm5.4-9.526q.393.015.583.015a13.806,13.806,0,0,0,2.418-.247A3.956,3.956,0,0,0,53.074,4.3a3.224,3.224,0,0,0,1-1.272,4.021,4.021,0,0,0,.4-1.745A4.266,4.266,0,0,0,53.846-.81a3.659,3.659,0,0,0-1.624-1.41,6.124,6.124,0,0,0-2.746-.567q-.393,0-1.02.044-.058.756-.058,1.163l.073,2.719-.015,1.12Q48.457,3.392,48.515,5.151Zm12.76,9.7a4.232,4.232,0,0,1,1.253-.306,3.207,3.207,0,0,0,1.544-.5,12.286,12.286,0,0,0,.393-4.082v-2.3l.029-1.385L64.465,5.26l.029-1.88L64.45-1.358a1.625,1.625,0,0,0-.233-1.05,3.827,3.827,0,0,0-1.777-.671,2.164,2.164,0,0,1-.728-.24.6.6,0,0,1-.16-.415,2.615,2.615,0,0,1,.466-.073h1.034l.539-.015a6.874,6.874,0,0,1,1.194.117q1.34.087,2.753.087.408,0,1.165-.044,2.01-.117,2.884-.117a15.246,15.246,0,0,1,3.328.35,11.693,11.693,0,0,1,3.226,1.3A8.331,8.331,0,0,1,80.262-.246a9.375,9.375,0,0,1,1.646,2.811A9.871,9.871,0,0,1,82.469,6a9.684,9.684,0,0,1-.619,3.379,8.914,8.914,0,0,1-1.726,2.906,8.645,8.645,0,0,1-2.243,1.85A12.62,12.62,0,0,1,74.414,15.2a22.606,22.606,0,0,1-3.452.175q-1.646,0-2.68-.1a6.188,6.188,0,0,0-.874-.058.981.981,0,0,0-.16.015l-5.943.117-.029-.117a.428.428,0,0,1-.029-.16Zm7.414-.583a6.887,6.887,0,0,0,2.243.379,9.282,9.282,0,0,0,2.884-.459,8.188,8.188,0,0,0,2.5-1.3A7.908,7.908,0,0,0,78.1,11a8.666,8.666,0,0,0,.991-1.9A10.518,10.518,0,0,0,79.5,5.879a10.077,10.077,0,0,0-.8-3.845A7.163,7.163,0,0,0,76.751-.559a8.652,8.652,0,0,0-3.285-1.813,14.017,14.017,0,0,0-4.093-.575,5.658,5.658,0,0,0-2.243.335,1.9,1.9,0,0,0-.175.2,2.887,2.887,0,0,0-.087.67q0,.189.015.452.044,1.69.044,2.709l-.015,3.307a57.308,57.308,0,0,0,.269,8.106A2.7,2.7,0,0,0,68.689,14.27Zm15.863.393a2.234,2.234,0,0,1,.655-.16q2.229-.146,2.549-.532t.32-3.739L88.062,8.7V7.1L88,5.333,88.033,4.3l-.015-1.137V1.82l-.029-.6.029-.758q.015-.262.015-.612,0-.919-.087-1.939a1.972,1.972,0,0,0-.16-.394,4.9,4.9,0,0,0-1.741-.372,4.547,4.547,0,0,1-1.362-.211q-.117-.087-.131-.452h1.226l3.866.087q1.488,0,3.968-.087a3.1,3.1,0,0,1-.029.437,9.533,9.533,0,0,1-.976.16,7.533,7.533,0,0,0-1.69.306.5.5,0,0,0-.277.248,2.445,2.445,0,0,0-.175.977L90.393.493l.058,6.487V9.546q-.029,1.21-.029,1.647a15.993,15.993,0,0,0,.08,2.085,1.205,1.205,0,0,0,.277.649,1.412,1.412,0,0,0,.648.313,5.777,5.777,0,0,0,1.049.175,1.782,1.782,0,0,1,1.034.233,1.466,1.466,0,0,1,.044.32v.117q-1.328.044-1.955.044-.365,0-1.3-.044l-2.013.029L84.858,15.1h-.277ZM106.066-2.846q.117.961.117,1.107l-.058,1.3a9.484,9.484,0,0,1-.073,1.063.565.565,0,0,1-.218.058L105.7.65a5.273,5.273,0,0,0-1.58-2.971,4.092,4.092,0,0,0-2.717-.932,3.981,3.981,0,0,0-2.724.932,2.813,2.813,0,0,0-1.063,2.17,2.474,2.474,0,0,0,.743,1.733,16.8,16.8,0,0,0,3.8,2.354,24.593,24.593,0,0,1,3.336,1.97,5.162,5.162,0,0,1,1.515,1.772,4.9,4.9,0,0,1,.51,2.245,5.673,5.673,0,0,1-.808,2.931,5.235,5.235,0,0,1-2.178,2.063,8.076,8.076,0,0,1-3.627.693,11.432,11.432,0,0,1-3.773-.626,4.277,4.277,0,0,1-1.3-.612.7.7,0,0,1-.233-.5,3.62,3.62,0,0,1,.029-.408,28.031,28.031,0,0,0,.218-2.826,2.514,2.514,0,0,1,.1-.8.23.23,0,0,1,.218-.1.263.263,0,0,1,.211.095.7.7,0,0,1,.109.357,4.939,4.939,0,0,0,1.661,3.2,4.756,4.756,0,0,0,3.365,1.413,4.7,4.7,0,0,0,2.119-.481,3.587,3.587,0,0,0,1.515-1.391,3.437,3.437,0,0,0,.546-1.77,3.251,3.251,0,0,0-.83-2.156,11.735,11.735,0,0,0-3.336-2.28,24.88,24.88,0,0,1-3.263-1.9,7.19,7.19,0,0,1-1.835-2.068A4.11,4.11,0,0,1,95.986.8a4.4,4.4,0,0,1,1.6-3.43,6.284,6.284,0,0,1,4.3-1.406,8.686,8.686,0,0,1,2.564.335A6.106,6.106,0,0,1,106.066-2.846ZM109.3-1.331l.6-2.2a1.265,1.265,0,0,1,.16-.561.3.3,0,0,1,.233-.124q.262,0,.6.626a2.013,2.013,0,0,0,.408.575.988.988,0,0,0,.466.168l.146-.015.626.058,3.438.044,4.064-.014h1.194l2.258-.043a2.912,2.912,0,0,1,.364.028q.99.086,1.224.086a.451.451,0,0,0,.35-.143q.044-.056.481-.962.189-.41.466-.41a.965.965,0,0,1,.291.058,2.152,2.152,0,0,1,.073.52l-.015.578.015,1.229q0,.448-.073,2.891a.7.7,0,0,1-.058.289.544.544,0,0,1-.277.1.257.257,0,0,1-.2-.108A2.277,2.277,0,0,1,125.9.672a4.881,4.881,0,0,0-.728-1.863,1.621,1.621,0,0,0-.838-.52,12.576,12.576,0,0,0-2.615-.159h-2.462q-.029.583-.029,1.064l.117,9.054q0,.539-.058,2.041l.015,1.939-.015,1.079a1.181,1.181,0,0,0,.175.729,1.987,1.987,0,0,0,.947.423q1.34.335,1.792.408a1.327,1.327,0,0,1,.452.117v.437l-2.068-.052q-1.7-.013-2.564-.065l-2.127.1-1.559.087a6.074,6.074,0,0,1-.8-.029l-.2-.087a.7.7,0,0,1,.131-.43,1.163,1.163,0,0,1,.539-.153,12.182,12.182,0,0,0,1.442-.313,2.978,2.978,0,0,0,1.092-.459.767.767,0,0,0,.2-.437,15.365,15.365,0,0,0,.131-2.52V8.589l-.058-5.4-.058-1.165-.015-3.889H114.4a7.164,7.164,0,0,0-2.549.254A9.033,9.033,0,0,0,109.722.7q-.466.721-.816.721l-.131-.029a.3.3,0,0,1-.058-.16A6.736,6.736,0,0,1,108.95.184Q109.241-.937,109.3-1.331Zm18.644,16.008a20.461,20.461,0,0,0,2.392-.349.763.763,0,0,0,.348-.437v-.16q0-.364.116-2.634.029-.64.029-1.252l-.044-1.732.029-1.965L130.8,2.5l.015-2.62a4.312,4.312,0,0,0-.255-2.023,2.163,2.163,0,0,0-1.391-.517,6.592,6.592,0,0,1-1.238-.226.254.254,0,0,1-.117-.233,1.043,1.043,0,0,1,.044-.262,1.161,1.161,0,0,1,.67-.146q.073,0,.4-.036a5.619,5.619,0,0,1,.619-.036h1.194l3.831-.044a14.8,14.8,0,0,1,4.552.481A4.194,4.194,0,0,1,141.2-1.542a4.466,4.466,0,0,1,.772,2.556,4.431,4.431,0,0,1-2.808,4.093,7.341,7.341,0,0,0-.757.437q.494,1.048,1.382,2.517l1.847,3.172a17.967,17.967,0,0,0,1.53,2.2,3.493,3.493,0,0,0,1.027.737,8.778,8.778,0,0,0,2.033.555q.015.146.015.233a2.047,2.047,0,0,1-.015.218q-2,.029-4.676.029-.189,0-.524-.029-1.034-1.984-2.433-4.362l-2.156-3.939a2.625,2.625,0,0,0-.721-.766,1.582,1.582,0,0,0-.75-.153l-1.238.014-.408-.014q-.044.466-.044,1.908v4.981a2.687,2.687,0,0,0,.117.772.93.93,0,0,0,.4.444,8.642,8.642,0,0,0,1.639.5l.6.146a.612.612,0,0,1,.117.393,3.552,3.552,0,0,1-.553.073q-1.309,0-1.846-.029-.276-.015-.451-.015l-1.978.029-1.934-.015q-.131,0-1.323.044l-.291-.058-.029-.146Q127.74,14.852,127.943,14.677Zm5.4-9.526q.393.015.583.015a13.806,13.806,0,0,0,2.418-.247,3.956,3.956,0,0,0,1.559-.618,3.225,3.225,0,0,0,1-1.272,4.022,4.022,0,0,0,.4-1.745,4.266,4.266,0,0,0-.626-2.094,3.659,3.659,0,0,0-1.624-1.41,6.124,6.124,0,0,0-2.746-.567q-.393,0-1.02.044-.058.756-.058,1.163l.073,2.719-.015,1.12Q133.29,3.392,133.348,5.151Zm12.119-8.783h.7q.379,0,1.661.039,1.981.078,3.292.078l1.7-.029a4.076,4.076,0,0,1,.7.058.371.371,0,0,1,.1.248v.16l-.366.175H153.1l-.82.015-.425-.015a1.361,1.361,0,0,0-.805.218.434.434,0,0,0-.233.335.916.916,0,0,0,.2.481q.073.117.233.35.291.5.772,1.152.685.962,1.458,2.274.306.525.641,1.006l2.215,3.353q.219-.277.6-.816l2.1-3.018,2.423-3.63a2.893,2.893,0,0,0,.379-.728,1.018,1.018,0,0,0,.029-.248.576.576,0,0,0-.277-.5,4.859,4.859,0,0,0-1.952-.452q-.1-.015-.277-.044a.616.616,0,0,1-.1-.291,1.35,1.35,0,0,1,.015-.189l.757-.015,2.738.073,2.2-.044q.087,0,.612.015l-.044.51a1.684,1.684,0,0,1-.32.044l-.35.044q-.087.015-.277.029a1.991,1.991,0,0,0-.481.248,48.057,48.057,0,0,0-3.642,4.268q-1.5,2.01-2.535,3.656-.335.539-.539.8a2.879,2.879,0,0,0-.452.728,6.841,6.841,0,0,0-.16,1.722,46.56,46.56,0,0,0,.16,5.355q.087.409.233.5a15.322,15.322,0,0,0,3.015.452v.17a1.1,1.1,0,0,1-.1.412l-3.735-.16-2.495.131h-2.042q-.292,0-.642-.015a.787.787,0,0,1-.058-.233.7.7,0,0,1,.044-.2.408.408,0,0,1,.2-.1l1.887-.291a4.646,4.646,0,0,0,1.1-.437.891.891,0,0,0,.219-.539q.015-.262.015-4.049a8.715,8.715,0,0,0-.095-1.726,5.279,5.279,0,0,0-.619-1.1l-1.908-2.9-3.248-4.734a6.35,6.35,0,0,0-1.471-1.648,3.649,3.649,0,0,0-1.384-.289,3.115,3.115,0,0,1-.35-.029Z" transform="translate(120.367 43.727)" fill="#001477" stroke="#001477" stroke-width="1"/>
  </g>
</svg>
