<svg xmlns="http://www.w3.org/2000/svg" width="100.607" height="103.033" viewBox="0 0 100.607 103.033">
  <g id="Component_1_3" data-name="Component 1 – 3" transform="translate(1.5 1.5)">
    <rect id="Rectangle_1" data-name="Rectangle 1" width="97.607" height="100.033" fill="none" stroke="#001477" stroke-width="3"/>
    <path id="Path_2" data-name="Path 2" d="M63.737,24.154Q58.9,31.5,51.151,45.452q-1.452,3.63-2.824,7.261-1.129,2.5-2.985,2.5A12.159,12.159,0,0,1,41.067,54q-3.146-1.291-3.146-2.582a7.686,7.686,0,0,1,1.049-2.5A140.417,140.417,0,0,0,48.328,22.38q4.437-16.7,3.792-25.493-.161-3.55-1.613-3.55-1.049,0-3.146,2.017Q27.03,15.2,12.186,48.437q-1.856,4.114-4.356,4.114-1.775,0-5.889-2.017Q.327,49.809.246,49.163A10.752,10.752,0,0,1,1.134,46.9a196.563,196.563,0,0,0,9.278-25.977Q15.332,3.905,15.978-5.614q.161-2.9-.161-2.9-.081,0-2.259,2.178T7.507-.693A2.237,2.237,0,0,1,5.893.033q-1.129,0-1.129-.887a2.227,2.227,0,0,1,.807-1.452Q9.04-6.744,14.687-13.359a3.4,3.4,0,0,1,2.5-1.371q1.936,0,3.388,2.824,6.535,1.936,6.131,5.97-.887,8.874-9.116,32.028A145.463,145.463,0,0,1,33.322,2.816Q43.649-10.051,48.651-12.391A10.412,10.412,0,0,1,52.2-13.52q1.049,0,3.388,1.775Q62.284-9.406,62.2-4q0,5.647-2.743,18.152Q57.283,24.477,55.427,30.2q2.34-2.985,5.97-7.745a1.749,1.749,0,0,1,1.291-.807q1.21,0,1.21,1.533A3.045,3.045,0,0,1,63.737,24.154Z" transform="translate(14.693 28.801)" fill="#001477" stroke="#001477" stroke-width="1"/>
  </g>
</svg>
